<?xml version="1.0" encoding="utf-8"?>
<!-- Generator: Adobe Illustrator 24.0.0, SVG Export Plug-In . SVG Version: 6.00 Build 0)  -->
<svg version="1.1" id="图层_1" xmlns="http://www.w3.org/2000/svg" xmlns:xlink="http://www.w3.org/1999/xlink" x="0px" y="0px"
	 viewBox="0 0 288 288" style="enable-background:new 0 0 288 288;" xml:space="preserve">
<style type="text/css">
	.st0{fill:#52EAED;}
	.st1{fill:#0D1F2F;}
	.st2{fill:url(#SVGID_1_);}
	.st3{fill:url(#SVGID_2_);}
	.st4{fill:url(#SVGID_3_);}
	.st5{fill:url(#SVGID_4_);}
	.st6{fill:#FFFFFF;}
</style>
<circle class="st0" cx="142.27" cy="146.38" r="127.56"/>
<circle class="st1" cx="142.27" cy="146.38" r="118"/>
<g>
	<path class="st0" d="M115.05,162.25c0.02-1.94,0.17-3.95,0.46-6c0.55-3.97-0.94-4.26,1.1-8.57c-5.46,5.79-10.26,5.49-17.98,5.49
		c-11.74,0-21.46-7.76-24.76-19.77c-4.63-16.85,7.96-33.63,40.82-54.38c0.57-0.36,1.15-0.71,1.74-1.05l-40.41-3.36l58.92-26.73
		c3.61-1.64,7.32-3.04,11.02-4.17c9.85-3,29.02-8.04,46.8-8.04c32.5,0,42.86,17,46.14,27.14c1.04,3.19,1.8,6.31,2.28,9.33
		c2.5-0.81,5.07-1.21,7.69-1.21c6.03,0,11.7,2.19,16.41,6.33c8.05,7.07,11.02,18.37,7.57,28.78c-5.48,16.53-23.48,33.16-38.89,42.31
		c-2.4,1.42-4.9,2.56-7.5,3.4c0.98,4.71,0.76,9.23-0.06,12.71l-0.08,0.35l-0.1,0.35c-3.91,13.99-19.45,29.39-47.51,47.09
		c-21.29,13.43-42.44,23.35-43.33,23.76l-22.59,10.55l9.93-14.18C93.62,244.8,22.06,257.24,22.06,257.24s49.11-32.67,83.78-68.44
		C110.55,183.93,115.04,163.77,115.05,162.25z"/>
	<g>
		<g>
			<polygon class="st0" points="42.68,147.1 93.72,138.4 93.74,135.69 			"/>
			<polygon class="st0" points="112.13,68.73 113.5,64.74 35.16,81.01 			"/>
			<polygon class="st0" points="61.75,86.24 132.56,75.14 127.19,72.09 			"/>
		</g>
	</g>
	<g>
		<g>
			<polygon class="st0" points="73.74,182.35 124.78,173.65 124.8,170.93 			"/>
			<polygon class="st0" points="121.85,183.04 123.22,179.05 44.87,195.32 			"/>
			<polygon class="st0" points="44.38,207.16 115.19,196.05 109.82,193 			"/>
		</g>
	</g>
	<g>
		<g>
			<polygon class="st0" points="81.97,154.8 133.01,146.1 133.03,143.38 			"/>
			<polygon class="st0" points="129.19,155.6 130.56,151.6 52.21,167.88 			"/>
			<polygon class="st0" points="62.27,174.6 133.09,163.5 127.71,160.45 			"/>
		</g>
	</g>
	<g>
		<g>
			<polygon class="st0" points="38.22,121.21 89.26,112.51 89.27,109.79 			"/>
			<polygon class="st0" points="89.88,120.68 91.25,116.68 12.91,132.96 			"/>
			<polygon class="st0" points="20.52,140.13 91.33,129.02 85.96,125.97 			"/>
		</g>
	</g>
	<g>
		<g>
			<polygon class="st0" points="77.46,89.58 128.51,80.88 128.52,78.16 			"/>
			<polygon class="st0" points="115.34,89.66 116.71,85.67 38.36,101.94 			"/>
			<polygon class="st0" points="33.41,111.22 104.22,100.12 98.85,97.07 			"/>
		</g>
	</g>
	<polygon class="st0" points="44.16,230.67 73.65,226.08 73.44,223.4 	"/>
	<polygon class="st0" points="89.13,215.14 89.63,211.31 44.6,221.24 	"/>
	<polygon class="st0" points="19.4,245.32 60.38,239.89 56.97,236.47 	"/>
	<path d="M260.01,83.26c-3.23-2.84-7.07-4.33-11.13-4.33c-3.86,0-7.64,1.34-11.24,3.98l-0.38,0.28l-0.36,0.32
		c-0.65,0.58-2.73,2.58-4.34,5.59c2.05-6.88,1.63-14.87-1.27-23.82c-3.19-9.86-12.47-21.61-38.53-21.61
		c-16.83,0-35.27,4.89-44.47,7.69c-3.43,1.05-6.78,2.32-10.04,3.8l-30.91,14.02l37.8,3.14l-8.83,6.94
		c-6.05,0.93-12.02,3.15-17.34,6.51c-38.1,24.06-39.58,37.49-37.38,45.5c2.36,8.57,8.89,13.89,17.05,13.89
		c6.49,0,12.97-3.47,16.92-9.05c3.19-4.51,4.27-9.83,3.06-14.85c7.68-3.78,15.01-7.21,18.03-8.32c2.59,0.33,7.05,1.36,10.35,2.5
		c-1.78,2.81-4.22,6.35-6.21,9.24c-9.39,13.62-16.14,23.93-17.35,32.67c-0.38,2.73-0.48,5.29-0.3,7.68l-4.44,16.04
		c-3.91,14.14-22.49,29.3-29.31,33.95l0.04,0.06l-38.65,30.1l47.05-12.3c22.19-6.54,37.55-17.86,47.17-27.21l-13,23.06
		c5.74-2.68,78.62-37.48,86.52-65.75l0.05-0.19l0.05-0.19c1.03-4.35,0.72-11.28-3.32-17.06c5.25-0.09,10.15-1.46,14.58-4.09
		c13.68-8.12,30.58-23.45,35.38-37.94C267.7,96.16,265.64,88.21,260.01,83.26z M230.65,93.89c0.12-0.24,0.23-0.49,0.35-0.73
		c-0.39,1.57-0.57,3.27-0.39,5.11c0.11,1.09,0.38,2.55,1.04,4.15c-5.56,3.7-10.58,6.57-13.26,7.51c-0.6-0.52-1.36-1.25-1.98-1.83
		c-0.17-0.16-0.34-0.32-0.52-0.49C222.77,104.31,227.63,99.78,230.65,93.89z"/>
	<g>
		<linearGradient id="SVGID_1_" gradientUnits="userSpaceOnUse" x1="82.7919" y1="221.9021" x2="257.7919" y2="17.902">
			<stop  offset="0" style="stop-color:#DC002A"/>
			<stop  offset="1" style="stop-color:#FCBD00"/>
		</linearGradient>
		<path class="st2" d="M253.41,90.77c-2.18-1.92-5.46-3.03-9.85,0.19c0,0-7.22,6.44,0.67,11.11c0,0,1.78,1.22,4.11,0.67
			c0,0-21.42,16.63-30.11,17.44c-7.11,0.67-10.11-10.78-23.67-13.78c-15.29-3.38-9.44-9.11-29.44-15.11
			c-10.64-3.19-20-3.08-26.42-2.28c-5.13,0.64-10.03,2.46-14.39,5.22c-11.22,7.09-35.92,24.05-33.08,34.39
			c3.67,13.33,20.78,3.67,17.44-5.78l-3.56-6c0,0,27.44-14,30.67-14s23.44,3.67,23.33,10.11s-24.01,33.14-25.78,45.78
			c-1.33,9.56-0.33,27.89,48.33,8.56c0,0,10.33-5,6.56-0.78c-3.78,4.22-38.11,42.67-38.11,42.67s51.89-24.22,58.78-48.89
			c0,0,5-21.11-32.33-13l-26.26,7.56c0,0,3.73-4.26,15.4-7.18c12.8-3.2,25.93-12.83,29.53-19.5c0,0,15.89,12.78,29.56,4.67
			c11.9-7.06,27.17-20.95,30.99-32.49C256.9,96.96,256.1,93.14,253.41,90.77z"/>
		<linearGradient id="SVGID_2_" gradientUnits="userSpaceOnUse" x1="96.7561" y1="233.8812" x2="271.7561" y2="29.8812">
			<stop  offset="0" style="stop-color:#DC002A"/>
			<stop  offset="1" style="stop-color:#FCBD00"/>
		</linearGradient>
		<path class="st3" d="M149.23,185.07c-15.78,3.78-20.89-1.33-20.89-1.33c-5.78,20.89-33.33,39.56-33.33,39.56
			C133.45,211.96,149.23,185.07,149.23,185.07z"/>
		<linearGradient id="SVGID_3_" gradientUnits="userSpaceOnUse" x1="136.2247" y1="116.9002" x2="205.2247" y2="58.9002">
			<stop  offset="0" style="stop-color:#DC002A"/>
			<stop  offset="1" style="stop-color:#FCBD00"/>
		</linearGradient>
		<path class="st4" d="M221.78,68.35c-9.5-29.33-76-5.67-76-5.67s33.33,2,34.67,4.33c0,0-19.17,5.33-21.5,7.17
			c0,0,17.83-0.33,19.33,6.17c1.41,6.09,1.05,18.05,18.17,20.89c2.61,0.43,7.31,0.25,9.83-0.56
			C216.12,97.52,228.9,90.31,221.78,68.35z M205.91,91.44c-7.34,0-13.29-6.12-13.29-13.67c0-7.55,5.95-13.67,13.29-13.67
			c7.34,0,13.29,6.12,13.29,13.67C219.2,85.32,213.25,91.44,205.91,91.44z"/>
		<linearGradient id="SVGID_4_" gradientUnits="userSpaceOnUse" x1="194.7049" y1="93.914" x2="212.5382" y2="68.414">
			<stop  offset="0" style="stop-color:#DC002A"/>
			<stop  offset="1" style="stop-color:#FCBD00"/>
		</linearGradient>
		<ellipse class="st5" cx="205.91" cy="77.89" rx="5.71" ry="6.04"/>
	</g>
</g>
<path class="st6" d="M227.72,207.9c-0.1-0.63-0.19-1.27-0.3-1.89c-0.35-1.96-0.5-3.99-1.12-5.87c-1.29-3.89-4.11-6.18-8.17-6.89
	c-1.55-0.27-3.09-0.52-4.65-0.82c0.86-0.14,1.72-0.27,2.58-0.43c1.47-0.27,2.99-0.35,4.38-0.95c3.5-1.5,5.65-4.11,6.33-7.88
	c0.37-2.06,0.68-4.13,1.07-6.2c0.11,0.7,0.22,1.4,0.34,2.1c0.35,1.95,0.5,3.96,1.13,5.82c1.27,3.79,4.04,6,7.99,6.7
	c1.58,0.28,3.17,0.55,4.75,0.88c-1.55,0.26-3.09,0.54-4.65,0.77c-2.37,0.35-4.36,1.39-6,3.13c-1.56,1.66-2.43,3.63-2.73,5.89
	c-0.23,1.72-0.53,3.43-0.79,5.14c-0.03,0.16-0.03,0.33-0.05,0.49C227.78,207.9,227.75,207.9,227.72,207.9z"/>
<path class="st6" d="M46.42,167.95c-0.06-0.36-0.11-0.72-0.17-1.08c-0.2-1.12-0.29-2.28-0.64-3.36c-0.74-2.23-2.35-3.54-4.68-3.94
	c-0.88-0.15-1.77-0.3-2.66-0.47c0.49-0.08,0.98-0.16,1.48-0.24c0.84-0.15,1.71-0.2,2.51-0.54c2-0.86,3.23-2.35,3.62-4.51
	c0.21-1.18,0.39-2.36,0.61-3.55c0.06,0.4,0.12,0.8,0.2,1.2c0.2,1.11,0.29,2.27,0.64,3.33c0.73,2.17,2.31,3.43,4.57,3.83
	c0.91,0.16,1.81,0.32,2.72,0.51c-0.89,0.15-1.77,0.31-2.66,0.44c-1.35,0.2-2.49,0.8-3.43,1.79c-0.9,0.95-1.39,2.08-1.56,3.37
	c-0.13,0.98-0.3,1.96-0.45,2.94c-0.01,0.09-0.02,0.19-0.03,0.28C46.46,167.95,46.44,167.95,46.42,167.95z"/>
<path class="st6" d="M161.51,244.21c-0.04-0.28-0.08-0.57-0.14-0.85c-0.16-0.88-0.22-1.79-0.5-2.63c-0.58-1.74-1.84-2.77-3.66-3.09
	c-0.69-0.12-1.39-0.23-2.08-0.37c0.39-0.06,0.77-0.12,1.16-0.19c0.66-0.12,1.34-0.16,1.96-0.43c1.57-0.67,2.53-1.84,2.84-3.53
	c0.16-0.92,0.3-1.85,0.48-2.78c0.05,0.31,0.1,0.63,0.15,0.94c0.16,0.87,0.22,1.78,0.5,2.61c0.57,1.7,1.81,2.69,3.58,3
	c0.71,0.12,1.42,0.25,2.13,0.4c-0.69,0.12-1.39,0.24-2.08,0.34c-1.06,0.16-1.95,0.62-2.69,1.4c-0.7,0.74-1.09,1.63-1.22,2.64
	c-0.1,0.77-0.24,1.54-0.36,2.3c-0.01,0.07-0.02,0.15-0.02,0.22C161.54,244.21,161.52,244.21,161.51,244.21z"/>
</svg>
